<svg t="1649162675112" class="icon" viewBox="0 0 1024 1024" version="1.1" xmlns="http://www.w3.org/2000/svg" p-id="2211" width="200" height="200"><path d="M512 512m-512 0a512 512 0 1 0 1024 0 512 512 0 1 0-1024 0Z" fill="#FF864B" p-id="2212"></path><path d="M188.16 345.386667h87.509333c27.626667 0 48.576 2.133333 62.805334 6.442666 14.250667 4.309333 25.728 13.013333 34.474666 26.154667 8.746667 13.12 13.141333 34.261333 13.141334 63.424 0 19.733333-3.093333 33.493333-9.28 41.258667-6.186667 7.786667-18.346667 13.76-36.565334 17.92 20.266667 4.586667 34.026667 12.181333 41.258667 22.826666 7.210667 10.602667 10.837333 26.88 10.837333 48.853334v31.232c0 22.784-2.602667 39.658667-7.829333 50.624a42.112 42.112 0 0 1-24.896 22.506666c-11.370667 4.032-34.709333 6.037333-69.973333 6.037334H188.16V345.386667z m87.722667 57.706666v74.986667c3.733333-0.128 6.656-0.213333 8.746666-0.213333 8.597333 0 14.08-2.112 16.448-6.336 2.368-4.245333 3.541333-16.362667 3.541334-36.373334 0-10.538667-0.96-17.941333-2.901334-22.186666-1.962667-4.224-4.48-6.890667-7.616-8.021334-3.114667-1.109333-9.194667-1.728-18.218666-1.856z m0 127.488v94.378667c12.373333-0.426667 20.245333-2.346667 23.637333-5.845333 3.413333-3.456 5.12-12.010667 5.12-25.6v-31.466667c0-14.442667-1.536-23.210667-4.608-26.24-3.050667-3.072-11.093333-4.8-24.149333-5.226667zM694.4 345.386667V682.666667h-76.672V454.954667L587.114667 682.666667h-54.357334l-32.298666-222.506667V682.666667h-76.672V345.386667h113.557333c3.328 20.266667 6.869333 44.16 10.624 71.658666l12.074667 85.824 19.989333-157.504h114.389333z m122.901333 0V682.666667h-87.68V345.386667h87.68z" fill="#FFFFFF" p-id="2213"></path></svg>