<svg t="1649162808647" class="icon" viewBox="0 0 1024 1024" version="1.1" xmlns="http://www.w3.org/2000/svg" p-id="3073" width="200" height="200"><path d="M708.213 159.073c-82.929 0-155.983 41.461-197.325 106.622-41.463-65.161-114.515-106.622-197.318-106.622-130.314 0-236.81 106.622-236.81 236.811 0 234.839 434.255 473.748 434.255 473.748s434.13-236.812 434.13-473.748c0-130.189-106.617-236.811-236.932-236.811z m0 0" fill="#F8CACF" p-id="3074"></path><path d="M0 495.842h236.069v40.225H0z" fill="#E64637" p-id="3075"></path><path d="M309.865 320.733l-73.915 213.729-38.011-13.077 111.926-254.214v53.562z m0-0.622l73.922 213.739 38.007-13.083-111.929-254.21v53.554z m226.692 388.473l73.922-213.73 38.004 13.082-111.926 254.211v-53.563z m0 0" fill="#E64637" p-id="3076"></path><path d="M609.985 494.98h414.262v40.226H609.985V494.98z m-73.428 212.991L462.642 494.24l-38.009 13.081 111.924 254.206v-53.556z m0 0" fill="#E64637" p-id="3077"></path><path d="M383.787 494.98h80.211v40.226h-80.211z" fill="#E64637" p-id="3078"></path></svg>